<svg xmlns="http://www.w3.org/2000/svg" viewBox="0 0 320 200" fill="none">
<rect width="320" height="200" fill="#eceef0"/>
<rect x="266" y="13" width="34" height="11" fill="#15181b"/>
<g fill="#15181b" fill-opacity=".3"><rect x="150" y="17" width="14" height="2"/><rect x="128" y="17" width="14" height="2"/><rect x="172" y="17" width="14" height="2"/></g>
<rect x="20" y="13" width="36" height="11" fill="#15181b"/>
<rect x="290" y="35" width="10" height="2" fill="#c3262f"/>
<rect x="200" y="46" width="100" height="9" fill="#15181b"/>
<rect x="230" y="61" width="70" height="9" fill="#c3262f"/>
<rect x="20" y="40" width="160" height="96" fill="#d9dde1"/>
<circle cx="100" cy="88" r="34" fill="#f6f7f8" stroke="#15181b" stroke-width="3"/>
<path d="M100 88 80 72" stroke="#c3262f" stroke-width="3"/><circle cx="100" cy="88" r="4" fill="#15181b"/>
<rect x="20" y="150" width="88" height="40" fill="#f6f7f8" stroke="#15181b" stroke-opacity=".12"/>
<rect x="116" y="150" width="88" height="40" fill="#f6f7f8" stroke="#15181b" stroke-opacity=".12"/>
<rect x="212" y="150" width="88" height="40" fill="#1a1e22"/>
</svg>
