<svg xmlns="http://www.w3.org/2000/svg" viewBox="0 0 320 200" fill="none">
<rect width="320" height="200" fill="#edebe6"/>
<rect x="266" y="13" width="34" height="11" rx="0" fill="#161616"/>
<g fill="#161616" fill-opacity=".3"><rect x="150" y="17" width="14" height="2" rx="1"/><rect x="128" y="17" width="14" height="2" rx="1"/><rect x="172" y="17" width="14" height="2" rx="1"/></g>
<rect x="20" y="13" width="36" height="11" rx="0" fill="#161616"/>
<rect x="200" y="46" width="100" height="9" rx="2" fill="#161616"/>
<rect x="236" y="61" width="64" height="9" rx="2" fill="#c9452c"/>
<circle cx="296" cy="36" r="3" fill="#c9452c"/>
<rect x="20" y="40" width="160" height="96" rx="0" fill="#d9d5cc"/>
<circle cx="70" cy="88" r="32" fill="#f2f0ec"/><circle cx="70" cy="88" r="20" fill="#e3e0d9"/>
<circle cx="132" cy="70" r="18" fill="#c9452c"/><circle cx="132" cy="70" r="10" fill="#9e3220"/>
<circle cx="138" cy="112" r="16" fill="#161616"/>
<rect x="20" y="150" width="88" height="40" rx="0" fill="#f7f6f2" stroke="#161616" stroke-opacity=".1"/>
<rect x="116" y="150" width="88" height="40" rx="0" fill="#f7f6f2" stroke="#161616" stroke-opacity=".1"/>
<rect x="212" y="150" width="88" height="40" rx="0" fill="#141414"/>
</svg>
